<svg width="90" height="90" viewBox="0 0 90 90" fill="none" xmlns="http://www.w3.org/2000/svg">
<rect x="0.5" y="0.5" width="89" height="89" stroke="black"/>
<circle cx="79" cy="11" r="2" stroke="black"/>
<path d="M12 13C32.5 23 27.5 16 43 16.5C55.4 16.9 72.1667 24.3333 79 28" stroke="black" stroke-width="1.5"/>
<path d="M12 30.7672C33.1579 25.9531 32.1504 27.5578 39.203 34.5114C46.2556 41.4651 50.7895 32.9067 59.3534 32.9067C66.2045 32.9067 75.3058 38.9689 79 42" stroke="black" stroke-width="1.5"/>
<path d="M12 44C25.5039 50.9333 27.5814 44 33.814 44C40.0465 44 54.0698 52 63.938 52C71.8326 52 77.2687 52 79 52" stroke="black" stroke-width="1.5"/>
<path d="M12 59.2978C31.7955 55.4012 33.3182 54.4271 40.4242 59.2978C47.5303 64.1685 48.5455 67.0909 50.0682 63.1944C51.5909 59.2978 54.1288 59.2978 59.2045 59.2978C64.2803 59.2978 69.8636 62.2202 73.4167 63.1944C76.2591 63.9737 78.3232 64.1685 79 64.1685" stroke="black" stroke-width="1.5"/>
<path d="M12 80.6167C33.814 77.747 22.907 85.8778 37.969 84.9213C53.031 83.9647 59.2636 78.7035 68.093 80.6167C75.1566 82.1472 78.3075 82.8487 79 83.0081" stroke="black" stroke-width="1.5"/>
<path d="M12 69.344C30.0385 73.4827 19.7308 62.1012 30.5538 65.7226C41.3769 69.344 42.4077 74 54.7769 74C64.6723 74 75.0487 74 79 74" stroke="black" stroke-width="1.5"/>
</svg>
